<?xml version="1.0" encoding="UTF-8" standalone="no"?><svg xmlns="http://www.w3.org/2000/svg" xmlns:xlink="http://www.w3.org/1999/xlink" contentScriptType="application/ecmascript" contentStyleType="text/css" height="347px" preserveAspectRatio="none" style="width:461px;height:347px;" version="1.1" viewBox="0 0 461 347" width="461px" zoomAndPan="magnify"><defs><filter height="300%" id="f1h3x30koun4m6" width="300%" x="-1" y="-1"><feGaussianBlur result="blurOut" stdDeviation="2.0"/><feColorMatrix in="blurOut" result="blurOut2" type="matrix" values="0 0 0 0 0 0 0 0 0 0 0 0 0 0 0 0 0 0 .4 0"/><feOffset dx="4.0" dy="4.0" in="blurOut2" result="blurOut3"/><feBlend in="SourceGraphic" in2="blurOut3" mode="normal"/></filter></defs><g><!--MD5=[ced14426384f36e2e2d78fd8bc8b7342]
class Endpoints--><rect fill="#FEFECE" filter="url(#f1h3x30koun4m6)" height="48" id="Endpoints" style="stroke: #A80036; stroke-width: 1.5;" width="87" x="107.5" y="8"/><ellipse cx="122.5" cy="24" fill="#B4A7E5" rx="11" ry="11" style="stroke: #A80036; stroke-width: 1.0;"/><path d="M118.9219,19.75 L118.9219,17.5938 L126.3125,17.5938 L126.3125,19.75 L123.8438,19.75 L123.8438,27.8438 L126.3125,27.8438 L126.3125,30 L118.9219,30 L118.9219,27.8438 L121.3906,27.8438 L121.3906,19.75 L118.9219,19.75 Z "/><text fill="#000000" font-family="sans-serif" font-size="12" font-style="italic" lengthAdjust="spacingAndGlyphs" textLength="55" x="136.5" y="28.1597">Endpoints</text><line style="stroke: #A80036; stroke-width: 1.5;" x1="108.5" x2="193.5" y1="40" y2="40"/><line style="stroke: #A80036; stroke-width: 1.5;" x1="108.5" x2="193.5" y1="48" y2="48"/><!--MD5=[a96151ec9f0e374fe5ff8c9a8116f84a]
class JsonEntities--><rect fill="#FEFECE" filter="url(#f1h3x30koun4m6)" height="73.6094" id="JsonEntities" style="stroke: #A80036; stroke-width: 1.5;" width="119" x="91.5" y="116"/><ellipse cx="116.85" cy="132" fill="#B4A7E5" rx="11" ry="11" style="stroke: #A80036; stroke-width: 1.0;"/><path d="M113.2719,127.75 L113.2719,125.5938 L120.6625,125.5938 L120.6625,127.75 L118.1938,127.75 L118.1938,135.8438 L120.6625,135.8438 L120.6625,138 L113.2719,138 L113.2719,135.8438 L115.7406,135.8438 L115.7406,127.75 L113.2719,127.75 Z "/><text fill="#000000" font-family="sans-serif" font-size="12" font-style="italic" lengthAdjust="spacingAndGlyphs" textLength="64" x="133.15" y="136.1597">JsonEntities</text><line style="stroke: #A80036; stroke-width: 1.5;" x1="92.5" x2="209.5" y1="148" y2="148"/><text fill="#000000" font-family="sans-serif" font-size="11" lengthAdjust="spacingAndGlyphs" textLength="100" x="97.5" y="162.2104">type JsonRequest[A]</text><text fill="#000000" font-family="sans-serif" font-size="11" lengthAdjust="spacingAndGlyphs" textLength="107" x="97.5" y="175.0151">type JsonResponse[A]</text><line style="stroke: #A80036; stroke-width: 1.5;" x1="92.5" x2="209.5" y1="181.6094" y2="181.6094"/><!--MD5=[38c1b27647d7e10dfe40802f6712178f]
class JsonSchemas--><rect fill="#FEFECE" filter="url(#f1h3x30koun4m6)" height="60.8047" id="JsonSchemas" style="stroke: #A80036; stroke-width: 1.5;" width="112" x="290" y="122.5"/><ellipse cx="307.7" cy="138.5" fill="#B4A7E5" rx="11" ry="11" style="stroke: #A80036; stroke-width: 1.0;"/><path d="M304.1219,134.25 L304.1219,132.0938 L311.5125,132.0938 L311.5125,134.25 L309.0438,134.25 L309.0438,142.3438 L311.5125,142.3438 L311.5125,144.5 L304.1219,144.5 L304.1219,142.3438 L306.5906,142.3438 L306.5906,134.25 L304.1219,134.25 Z "/><text fill="#000000" font-family="sans-serif" font-size="12" font-style="italic" lengthAdjust="spacingAndGlyphs" textLength="74" x="322.3" y="142.6597">JsonSchemas</text><line style="stroke: #A80036; stroke-width: 1.5;" x1="291" x2="401" y1="154.5" y2="154.5"/><text fill="#000000" font-family="sans-serif" font-size="11" lengthAdjust="spacingAndGlyphs" textLength="100" x="296" y="168.7104">type JsonSchema[A]</text><line style="stroke: #A80036; stroke-width: 1.5;" x1="291" x2="401" y1="175.3047" y2="175.3047"/><!--MD5=[0c0efb0fa19053c5a2ff7255b1774068]
class JsonEntitiesFromCodecs--><rect fill="#FEFECE" filter="url(#f1h3x30koun4m6)" height="86.4141" id="JsonEntitiesFromCodecs" style="stroke: #A80036; stroke-width: 1.5;" width="200" x="6" y="250"/><ellipse cx="36.75" cy="266" fill="#B4A7E5" rx="11" ry="11" style="stroke: #A80036; stroke-width: 1.0;"/><path d="M33.1719,261.75 L33.1719,259.5938 L40.5625,259.5938 L40.5625,261.75 L38.0938,261.75 L38.0938,269.8438 L40.5625,269.8438 L40.5625,272 L33.1719,272 L33.1719,269.8438 L35.6406,269.8438 L35.6406,261.75 L33.1719,261.75 Z "/><text fill="#000000" font-family="sans-serif" font-size="12" font-style="italic" lengthAdjust="spacingAndGlyphs" textLength="133" x="54.25" y="270.1597">JsonEntitiesFromCodecs</text><line style="stroke: #A80036; stroke-width: 1.5;" x1="7" x2="205" y1="282" y2="282"/><text fill="#000000" font-family="sans-serif" font-size="11" lengthAdjust="spacingAndGlyphs" textLength="91" x="12" y="296.2104">type JsonCodec[A]</text><text fill="#000000" font-family="sans-serif" font-size="11" lengthAdjust="spacingAndGlyphs" textLength="181" x="12" y="309.0151">type JsonRequest[A] = JsonCodec[A]</text><text fill="#000000" font-family="sans-serif" font-size="11" lengthAdjust="spacingAndGlyphs" textLength="188" x="12" y="321.8198">type JsonResponse[A] = JsonCodec[A]</text><line style="stroke: #A80036; stroke-width: 1.5;" x1="7" x2="205" y1="328.4141" y2="328.4141"/><!--MD5=[cccc5e3850df1d9bbf082a589795c43e]
class JsonEntitiesFromSchemas--><rect fill="#FEFECE" filter="url(#f1h3x30koun4m6)" height="73.6094" id="JsonEntitiesFromSchemas" style="stroke: #A80036; stroke-width: 1.5;" width="209" x="241.5" y="256"/><ellipse cx="271.8" cy="272" fill="#B4A7E5" rx="11" ry="11" style="stroke: #A80036; stroke-width: 1.0;"/><path d="M268.2219,267.75 L268.2219,265.5938 L275.6125,265.5938 L275.6125,267.75 L273.1438,267.75 L273.1438,275.8438 L275.6125,275.8438 L275.6125,278 L268.2219,278 L268.2219,275.8438 L270.6906,275.8438 L270.6906,267.75 L268.2219,267.75 Z "/><text fill="#000000" font-family="sans-serif" font-size="12" font-style="italic" lengthAdjust="spacingAndGlyphs" textLength="143" x="289.2" y="276.1597">JsonEntitiesFromSchemas</text><line style="stroke: #A80036; stroke-width: 1.5;" x1="242.5" x2="449.5" y1="288" y2="288"/><text fill="#000000" font-family="sans-serif" font-size="11" lengthAdjust="spacingAndGlyphs" textLength="190" x="247.5" y="302.2104">type JsonRequest[A] = JsonSchema[A]</text><text fill="#000000" font-family="sans-serif" font-size="11" lengthAdjust="spacingAndGlyphs" textLength="197" x="247.5" y="315.0151">type JsonResponse[A] = JsonSchema[A]</text><line style="stroke: #A80036; stroke-width: 1.5;" x1="242.5" x2="449.5" y1="321.6094" y2="321.6094"/><!--MD5=[098083b003fe3a30d5a085042c244132]
reverse link Endpoints to JsonEntities--><path d="M151,76.5529 C151,89.5142 151,103.5269 151,115.9716 " fill="none" id="Endpoints&lt;-JsonEntities" style="stroke: #A80036; stroke-width: 1.0;"/><polygon fill="none" points="144.0001,76.1954,151,56.1953,158.0001,76.1953,144.0001,76.1954" style="stroke: #A80036; stroke-width: 1.0;"/><!--MD5=[57ef82fe3b11ca7257fbc59886d21e95]
reverse link JsonEntities to JsonEntitiesFromSchemas--><path d="M219.2895,202.0283 C243.9486,219.7323 271.3541,239.4081 294.3524,255.9196 " fill="none" id="JsonEntities&lt;-JsonEntitiesFromSchemas" style="stroke: #A80036; stroke-width: 1.0;"/><polygon fill="none" points="214.9085,207.5003,202.7445,190.1499,223.0734,196.1278,214.9085,207.5003" style="stroke: #A80036; stroke-width: 1.0;"/><!--MD5=[e4b3edfd9ac45b5ca05735c70f18cc2c]
reverse link JsonSchemas to JsonEntitiesFromSchemas--><path d="M346,203.9112 C346,221.1034 346,239.959 346,255.8788 " fill="none" id="JsonSchemas&lt;-JsonEntitiesFromSchemas" style="stroke: #A80036; stroke-width: 1.0;"/><polygon fill="none" points="339.0001,203.7236,346,183.7236,353.0001,203.7236,339.0001,203.7236" style="stroke: #A80036; stroke-width: 1.0;"/><!--MD5=[6311cdaaf44091f3dc13dee3390b87c5]
reverse link JsonEntities to JsonEntitiesFromCodecs--><path d="M132.915,209.2644 C128.5542,222.8315 123.963,237.1152 119.832,249.9672 " fill="none" id="JsonEntities&lt;-JsonEntitiesFromCodecs" style="stroke: #A80036; stroke-width: 1.0;"/><polygon fill="none" points="126.2745,207.0484,139.059,190.1499,139.6029,211.3325,126.2745,207.0484" style="stroke: #A80036; stroke-width: 1.0;"/><!--MD5=[0ffdb2a0a5c236bc94783389708a9125]
@startuml
interface Endpoints
interface JsonEntities {
  type JsonRequest[A]
  type JsonResponse[A]
}
interface JsonSchemas {
  type JsonSchema[A]
}
interface JsonEntitiesFromCodecs {
  type JsonCodec[A]
  type JsonRequest[A] = JsonCodec[A]
  type JsonResponse[A] = JsonCodec[A]
}
interface JsonEntitiesFromSchemas {
  type JsonRequest[A] = JsonSchema[A]
  type JsonResponse[A] = JsonSchema[A]
}
Endpoints <|- - JsonEntities
JsonEntities <|- - JsonEntitiesFromSchemas
JsonSchemas <|- - JsonEntitiesFromSchemas
JsonEntities <|- - JsonEntitiesFromCodecs
@enduml

PlantUML version 1.2019.11(Sun Sep 22 12:02:15 CEST 2019)
(GPL source distribution)
Java Runtime: OpenJDK Runtime Environment
JVM: OpenJDK 64-Bit Server VM
Java Version: 11.0.4+10-b520.11
Operating System: Linux
Default Encoding: UTF-8
Language: en
Country: US
--></g></svg>