<?xml version="1.0" encoding="UTF-8" standalone="no"?><svg xmlns="http://www.w3.org/2000/svg" xmlns:xlink="http://www.w3.org/1999/xlink" contentScriptType="application/ecmascript" contentStyleType="text/css" height="347px" preserveAspectRatio="none" style="width:461px;height:347px;" version="1.1" viewBox="0 0 461 347" width="461px" zoomAndPan="magnify"><defs><filter height="300%" id="fin5tkb5ngkrh" width="300%" x="-1" y="-1"><feGaussianBlur result="blurOut" stdDeviation="2.0"/><feColorMatrix in="blurOut" result="blurOut2" type="matrix" values="0 0 0 0 0 0 0 0 0 0 0 0 0 0 0 0 0 0 .4 0"/><feOffset dx="4.0" dy="4.0" in="blurOut2" result="blurOut3"/><feBlend in="SourceGraphic" in2="blurOut3" mode="normal"/></filter></defs><g><!--class Endpoints--><rect fill="#FEFECE" filter="url(#fin5tkb5ngkrh)" height="48" id="Endpoints" style="stroke: #A80036; stroke-width: 1.5;" width="87" x="107.5" y="8"/><ellipse cx="122.5" cy="24" fill="#B4A7E5" rx="11" ry="11" style="stroke: #A80036; stroke-width: 1.0;"/><path d="M118.9219,19.7656 L118.9219,17.6094 L126.3125,17.6094 L126.3125,19.7656 L123.8438,19.7656 L123.8438,27.8438 L126.3125,27.8438 L126.3125,30 L118.9219,30 L118.9219,27.8438 L121.3906,27.8438 L121.3906,19.7656 L118.9219,19.7656 Z "/><text fill="#000000" font-family="sans-serif" font-size="12" font-style="italic" lengthAdjust="spacingAndGlyphs" textLength="55" x="136.5" y="28.1543">Endpoints</text><line style="stroke: #A80036; stroke-width: 1.5;" x1="108.5" x2="193.5" y1="40" y2="40"/><line style="stroke: #A80036; stroke-width: 1.5;" x1="108.5" x2="193.5" y1="48" y2="48"/><!--class JsonEntities--><rect fill="#FEFECE" filter="url(#fin5tkb5ngkrh)" height="73.6094" id="JsonEntities" style="stroke: #A80036; stroke-width: 1.5;" width="119" x="91.5" y="116"/><ellipse cx="116.85" cy="132" fill="#B4A7E5" rx="11" ry="11" style="stroke: #A80036; stroke-width: 1.0;"/><path d="M113.2719,127.7656 L113.2719,125.6094 L120.6625,125.6094 L120.6625,127.7656 L118.1938,127.7656 L118.1938,135.8438 L120.6625,135.8438 L120.6625,138 L113.2719,138 L113.2719,135.8438 L115.7406,135.8438 L115.7406,127.7656 L113.2719,127.7656 Z "/><text fill="#000000" font-family="sans-serif" font-size="12" font-style="italic" lengthAdjust="spacingAndGlyphs" textLength="64" x="133.15" y="136.1543">JsonEntities</text><line style="stroke: #A80036; stroke-width: 1.5;" x1="92.5" x2="209.5" y1="148" y2="148"/><text fill="#000000" font-family="sans-serif" font-size="11" lengthAdjust="spacingAndGlyphs" textLength="100" x="97.5" y="162.2104">type JsonRequest[A]</text><text fill="#000000" font-family="sans-serif" font-size="11" lengthAdjust="spacingAndGlyphs" textLength="107" x="97.5" y="175.0151">type JsonResponse[A]</text><line style="stroke: #A80036; stroke-width: 1.5;" x1="92.5" x2="209.5" y1="181.6094" y2="181.6094"/><!--class JsonSchemas--><rect fill="#FEFECE" filter="url(#fin5tkb5ngkrh)" height="60.8047" id="JsonSchemas" style="stroke: #A80036; stroke-width: 1.5;" width="112" x="290" y="122.5"/><ellipse cx="307.7" cy="138.5" fill="#B4A7E5" rx="11" ry="11" style="stroke: #A80036; stroke-width: 1.0;"/><path d="M304.1219,134.2656 L304.1219,132.1094 L311.5125,132.1094 L311.5125,134.2656 L309.0438,134.2656 L309.0438,142.3438 L311.5125,142.3438 L311.5125,144.5 L304.1219,144.5 L304.1219,142.3438 L306.5906,142.3438 L306.5906,134.2656 L304.1219,134.2656 Z "/><text fill="#000000" font-family="sans-serif" font-size="12" font-style="italic" lengthAdjust="spacingAndGlyphs" textLength="74" x="322.3" y="142.6543">JsonSchemas</text><line style="stroke: #A80036; stroke-width: 1.5;" x1="291" x2="401" y1="154.5" y2="154.5"/><text fill="#000000" font-family="sans-serif" font-size="11" lengthAdjust="spacingAndGlyphs" textLength="100" x="296" y="168.7104">type JsonSchema[A]</text><line style="stroke: #A80036; stroke-width: 1.5;" x1="291" x2="401" y1="175.3047" y2="175.3047"/><!--class JsonEntitiesFromCodec--><rect fill="#FEFECE" filter="url(#fin5tkb5ngkrh)" height="86.4141" id="JsonEntitiesFromCodec" style="stroke: #A80036; stroke-width: 1.5;" width="200" x="6" y="250"/><ellipse cx="39.45" cy="266" fill="#B4A7E5" rx="11" ry="11" style="stroke: #A80036; stroke-width: 1.0;"/><path d="M35.8719,261.7656 L35.8719,259.6094 L43.2625,259.6094 L43.2625,261.7656 L40.7938,261.7656 L40.7938,269.8438 L43.2625,269.8438 L43.2625,272 L35.8719,272 L35.8719,269.8438 L38.3406,269.8438 L38.3406,261.7656 L35.8719,261.7656 Z "/><text fill="#000000" font-family="sans-serif" font-size="12" font-style="italic" lengthAdjust="spacingAndGlyphs" textLength="127" x="57.55" y="270.1543">JsonEntitiesFromCodec</text><line style="stroke: #A80036; stroke-width: 1.5;" x1="7" x2="205" y1="282" y2="282"/><text fill="#000000" font-family="sans-serif" font-size="11" lengthAdjust="spacingAndGlyphs" textLength="91" x="12" y="296.2104">type JsonCodec[A]</text><text fill="#000000" font-family="sans-serif" font-size="11" lengthAdjust="spacingAndGlyphs" textLength="181" x="12" y="309.0151">type JsonRequest[A] = JsonCodec[A]</text><text fill="#000000" font-family="sans-serif" font-size="11" lengthAdjust="spacingAndGlyphs" textLength="188" x="12" y="321.8198">type JsonResponse[A] = JsonCodec[A]</text><line style="stroke: #A80036; stroke-width: 1.5;" x1="7" x2="205" y1="328.4141" y2="328.4141"/><!--class JsonSchemaEntities--><rect fill="#FEFECE" filter="url(#fin5tkb5ngkrh)" height="73.6094" id="JsonSchemaEntities" style="stroke: #A80036; stroke-width: 1.5;" width="209" x="241.5" y="256"/><ellipse cx="287.25" cy="272" fill="#B4A7E5" rx="11" ry="11" style="stroke: #A80036; stroke-width: 1.0;"/><path d="M283.6719,267.7656 L283.6719,265.6094 L291.0625,265.6094 L291.0625,267.7656 L288.5938,267.7656 L288.5938,275.8438 L291.0625,275.8438 L291.0625,278 L283.6719,278 L283.6719,275.8438 L286.1406,275.8438 L286.1406,267.7656 L283.6719,267.7656 Z "/><text fill="#000000" font-family="sans-serif" font-size="12" font-style="italic" lengthAdjust="spacingAndGlyphs" textLength="109" x="307.75" y="276.1543">JsonSchemaEntities</text><line style="stroke: #A80036; stroke-width: 1.5;" x1="242.5" x2="449.5" y1="288" y2="288"/><text fill="#000000" font-family="sans-serif" font-size="11" lengthAdjust="spacingAndGlyphs" textLength="190" x="247.5" y="302.2104">type JsonRequest[A] = JsonSchema[A]</text><text fill="#000000" font-family="sans-serif" font-size="11" lengthAdjust="spacingAndGlyphs" textLength="197" x="247.5" y="315.0151">type JsonResponse[A] = JsonSchema[A]</text><line style="stroke: #A80036; stroke-width: 1.5;" x1="242.5" x2="449.5" y1="321.6094" y2="321.6094"/><!--link Endpoints to JsonEntities--><path d="M151,76.5529 C151,89.5142 151,103.5269 151,115.9716 " fill="none" id="Endpoints-JsonEntities" style="stroke: #A80036; stroke-width: 1.0;"/><polygon fill="none" points="144.0001,76.1954,151,56.1953,158.0001,76.1953,144.0001,76.1954" style="stroke: #A80036; stroke-width: 1.0;"/><!--link JsonEntities to JsonSchemaEntities--><path d="M219.2895,202.0283 C243.9486,219.7323 271.3541,239.4081 294.3524,255.9196 " fill="none" id="JsonEntities-JsonSchemaEntities" style="stroke: #A80036; stroke-width: 1.0;"/><polygon fill="none" points="214.9085,207.5003,202.7445,190.1499,223.0734,196.1278,214.9085,207.5003" style="stroke: #A80036; stroke-width: 1.0;"/><!--link JsonSchemas to JsonSchemaEntities--><path d="M346,203.9112 C346,221.1034 346,239.959 346,255.8788 " fill="none" id="JsonSchemas-JsonSchemaEntities" style="stroke: #A80036; stroke-width: 1.0;"/><polygon fill="none" points="339.0001,203.7236,346,183.7236,353.0001,203.7236,339.0001,203.7236" style="stroke: #A80036; stroke-width: 1.0;"/><!--link JsonEntities to JsonEntitiesFromCodec--><path d="M132.915,209.2644 C128.5542,222.8315 123.963,237.1152 119.832,249.9672 " fill="none" id="JsonEntities-JsonEntitiesFromCodec" style="stroke: #A80036; stroke-width: 1.0;"/><polygon fill="none" points="126.2745,207.0484,139.059,190.1499,139.6029,211.3325,126.2745,207.0484" style="stroke: #A80036; stroke-width: 1.0;"/><!--
@startuml
interface Endpoints
interface JsonEntities {
  type JsonRequest[A]
  type JsonResponse[A]
}
interface JsonSchemas {
  type JsonSchema[A]
}
interface JsonEntitiesFromCodec {
  type JsonCodec[A]
  type JsonRequest[A] = JsonCodec[A]
  type JsonResponse[A] = JsonCodec[A]
}
interface JsonSchemaEntities {
  type JsonRequest[A] = JsonSchema[A]
  type JsonResponse[A] = JsonSchema[A]
}
Endpoints <|- - JsonEntities
JsonEntities <|- - JsonSchemaEntities
JsonSchemas <|- - JsonSchemaEntities
JsonEntities <|- - JsonEntitiesFromCodec
@enduml

PlantUML version 1.2019.08(Sat Jul 13 21:25:14 CEST 2019)
(GPL source distribution)
Java Runtime: OpenJDK Runtime Environment
JVM: OpenJDK 64-Bit Server VM
Java Version: 11.0.3+12-b304.10
Operating System: Linux
OS Version: 4.15.0-55-generic
Default Encoding: UTF-8
Language: en
Country: US
--></g></svg>