<?xml version="1.0" encoding="UTF-8" standalone="no"?><svg xmlns="http://www.w3.org/2000/svg" xmlns:xlink="http://www.w3.org/1999/xlink" contentScriptType="application/ecmascript" contentStyleType="text/css" height="556px" preserveAspectRatio="none" style="width:437px;height:556px;" version="1.1" viewBox="0 0 437 556" width="437px" zoomAndPan="magnify"><defs><filter height="300%" id="f11r4o20bjrq85" width="300%" x="-1" y="-1"><feGaussianBlur result="blurOut" stdDeviation="2.0"/><feColorMatrix in="blurOut" result="blurOut2" type="matrix" values="0 0 0 0 0 0 0 0 0 0 0 0 0 0 0 0 0 0 .4 0"/><feOffset dx="4.0" dy="4.0" in="blurOut2" result="blurOut3"/><feBlend in="SourceGraphic" in2="blurOut3" mode="normal"/></filter></defs><g><rect fill="#FFFFFF" filter="url(#f11r4o20bjrq85)" height="144.4688" style="stroke: #000000; stroke-width: 2.0;" width="331" x="94" y="138.6953"/><rect fill="#FFFFFF" height="43.9375" style="stroke: none; stroke-width: 1.0;" width="331" x="94" y="239.2266"/><rect fill="#FFFFFF" filter="url(#f11r4o20bjrq85)" height="90.2031" style="stroke: #000000; stroke-width: 2.0;" width="251.5" x="94" y="408.5625"/><rect fill="#FFFFFF" height="43.9375" style="stroke: none; stroke-width: 1.0;" width="251.5" x="94" y="454.8281"/><line style="stroke: #A80036; stroke-width: 1.0;" x1="130" x2="130" y1="38.2969" y2="290.1641"/><line style="stroke: #A80036; stroke-width: 1.0; stroke-dasharray: 1.0,4.0;" x1="130" x2="130" y1="290.1641" y2="318.1641"/><line style="stroke: #A80036; stroke-width: 1.0;" x1="130" x2="130" y1="318.1641" y2="515.7656"/><line style="stroke: #A80036; stroke-width: 1.0;" x1="305.5" x2="305.5" y1="38.2969" y2="290.1641"/><line style="stroke: #A80036; stroke-width: 1.0; stroke-dasharray: 1.0,4.0;" x1="305.5" x2="305.5" y1="290.1641" y2="318.1641"/><line style="stroke: #A80036; stroke-width: 1.0;" x1="305.5" x2="305.5" y1="318.1641" y2="515.7656"/><rect fill="#FEFECE" filter="url(#f11r4o20bjrq85)" height="30.2969" style="stroke: #A80036; stroke-width: 1.5;" width="48" x="104" y="3"/><text fill="#000000" font-family="sans-serif" font-size="14" lengthAdjust="spacingAndGlyphs" textLength="34" x="111" y="22.9951">client</text><rect fill="#FEFECE" filter="url(#f11r4o20bjrq85)" height="30.2969" style="stroke: #A80036; stroke-width: 1.5;" width="48" x="104" y="514.7656"/><text fill="#000000" font-family="sans-serif" font-size="14" lengthAdjust="spacingAndGlyphs" textLength="34" x="111" y="534.7607">client</text><rect fill="#FEFECE" filter="url(#f11r4o20bjrq85)" height="30.2969" style="stroke: #A80036; stroke-width: 1.5;" width="55" x="276.5" y="3"/><text fill="#000000" font-family="sans-serif" font-size="14" lengthAdjust="spacingAndGlyphs" textLength="41" x="283.5" y="22.9951">server</text><rect fill="#FEFECE" filter="url(#f11r4o20bjrq85)" height="30.2969" style="stroke: #A80036; stroke-width: 1.5;" width="55" x="276.5" y="514.7656"/><text fill="#000000" font-family="sans-serif" font-size="14" lengthAdjust="spacingAndGlyphs" textLength="41" x="283.5" y="534.7607">server</text><polygon fill="#A80036" points="294,65.4297,304,69.4297,294,73.4297,298,69.4297" style="stroke: #A80036; stroke-width: 1.0;"/><line style="stroke: #A80036; stroke-width: 1.0;" x1="130" x2="300" y1="69.4297" y2="69.4297"/><text fill="#000000" font-family="sans-serif" font-size="13" lengthAdjust="spacingAndGlyphs" textLength="62" x="137" y="64.3638">GET /login</text><path d="M21,82.4297 L21,122.4297 L235,122.4297 L235,92.4297 L225,82.4297 L21,82.4297 " fill="#FBFB77" filter="url(#f11r4o20bjrq85)" style="stroke: #A80036; stroke-width: 1.0;"/><path d="M225,82.4297 L225,92.4297 L235,92.4297 L225,82.4297 " fill="#FBFB77" style="stroke: #A80036; stroke-width: 1.0;"/><text fill="#000000" font-family="sans-serif" font-size="13" lengthAdjust="spacingAndGlyphs" textLength="166" x="27" y="99.4966">Client sends its credentials</text><text fill="#000000" font-family="sans-serif" font-size="13" lengthAdjust="spacingAndGlyphs" textLength="193" x="27" y="114.6294">(e.g., a password or an API key)</text><path d="M94,138.6953 L157,138.6953 L157,145.6953 L147,155.6953 L94,155.6953 L94,138.6953 " fill="#EEEEEE" style="stroke: #000000; stroke-width: 1.0;"/><rect fill="none" height="144.4688" style="stroke: #000000; stroke-width: 2.0;" width="331" x="94" y="138.6953"/><text fill="#000000" font-family="sans-serif" font-size="13" font-weight="bold" lengthAdjust="spacingAndGlyphs" textLength="18" x="109" y="151.7622">alt</text><text fill="#000000" font-family="sans-serif" font-size="11" font-weight="bold" lengthAdjust="spacingAndGlyphs" textLength="103" x="172" y="150.9058">[valid credentials]</text><polygon fill="#A80036" points="141,172.9609,131,176.9609,141,180.9609,137,176.9609" style="stroke: #A80036; stroke-width: 1.0;"/><line style="stroke: #A80036; stroke-width: 1.0; stroke-dasharray: 2.0,2.0;" x1="135" x2="305" y1="176.9609" y2="176.9609"/><text fill="#000000" font-family="sans-serif" font-size="13" lengthAdjust="spacingAndGlyphs" textLength="129" x="147" y="171.895">OK: JSON Web Token</text><path d="M197,189.9609 L197,229.9609 L411,229.9609 L411,199.9609 L401,189.9609 L197,189.9609 " fill="#FBFB77" filter="url(#f11r4o20bjrq85)" style="stroke: #A80036; stroke-width: 1.0;"/><path d="M401,189.9609 L401,199.9609 L411,199.9609 L401,189.9609 " fill="#FBFB77" style="stroke: #A80036; stroke-width: 1.0;"/><text fill="#000000" font-family="sans-serif" font-size="13" lengthAdjust="spacingAndGlyphs" textLength="193" x="203" y="207.0278">Server replies with a JSON Web</text><text fill="#000000" font-family="sans-serif" font-size="13" lengthAdjust="spacingAndGlyphs" textLength="190" x="203" y="222.1606">Token attached to its response</text><line style="stroke: #000000; stroke-width: 1.0; stroke-dasharray: 2.0,2.0;" x1="94" x2="425" y1="240.2266" y2="240.2266"/><text fill="#000000" font-family="sans-serif" font-size="11" font-weight="bold" lengthAdjust="spacingAndGlyphs" textLength="113" x="99" y="250.437">[invalid credentials]</text><polygon fill="#A80036" points="141,271.1641,131,275.1641,141,279.1641,137,275.1641" style="stroke: #A80036; stroke-width: 1.0;"/><line style="stroke: #A80036; stroke-width: 1.0; stroke-dasharray: 2.0,2.0;" x1="135" x2="305" y1="275.1641" y2="275.1641"/><text fill="#000000" font-family="sans-serif" font-size="13" lengthAdjust="spacingAndGlyphs" textLength="79" x="147" y="270.0981">Bad Request</text><polygon fill="#A80036" points="294,335.2969,304,339.2969,294,343.2969,298,339.2969" style="stroke: #A80036; stroke-width: 1.0;"/><line style="stroke: #A80036; stroke-width: 1.0;" x1="130" x2="300" y1="339.2969" y2="339.2969"/><text fill="#000000" font-family="sans-serif" font-size="13" lengthAdjust="spacingAndGlyphs" textLength="152" x="137" y="334.231">GET /protected-resource</text><path d="M8,352.2969 L8,392.2969 L249,392.2969 L249,362.2969 L239,352.2969 L8,352.2969 " fill="#FBFB77" filter="url(#f11r4o20bjrq85)" style="stroke: #A80036; stroke-width: 1.0;"/><path d="M239,352.2969 L239,362.2969 L249,362.2969 L239,352.2969 " fill="#FBFB77" style="stroke: #A80036; stroke-width: 1.0;"/><text fill="#000000" font-family="sans-serif" font-size="13" lengthAdjust="spacingAndGlyphs" textLength="220" x="14" y="369.3638">Client tries to access to a protected</text><text fill="#000000" font-family="sans-serif" font-size="13" lengthAdjust="spacingAndGlyphs" textLength="154" x="14" y="384.4966">resource by using its JWT</text><path d="M94,408.5625 L157,408.5625 L157,415.5625 L147,425.5625 L94,425.5625 L94,408.5625 " fill="#EEEEEE" style="stroke: #000000; stroke-width: 1.0;"/><rect fill="none" height="90.2031" style="stroke: #000000; stroke-width: 2.0;" width="251.5" x="94" y="408.5625"/><text fill="#000000" font-family="sans-serif" font-size="13" font-weight="bold" lengthAdjust="spacingAndGlyphs" textLength="18" x="109" y="421.6294">alt</text><text fill="#000000" font-family="sans-serif" font-size="11" font-weight="bold" lengthAdjust="spacingAndGlyphs" textLength="63" x="172" y="420.7729">[valid JWT]</text><polygon fill="#A80036" points="141,442.8281,131,446.8281,141,450.8281,137,446.8281" style="stroke: #A80036; stroke-width: 1.0;"/><line style="stroke: #A80036; stroke-width: 1.0; stroke-dasharray: 2.0,2.0;" x1="135" x2="305" y1="446.8281" y2="446.8281"/><text fill="#000000" font-family="sans-serif" font-size="13" lengthAdjust="spacingAndGlyphs" textLength="18" x="147" y="441.7622">OK</text><line style="stroke: #000000; stroke-width: 1.0; stroke-dasharray: 2.0,2.0;" x1="94" x2="345.5" y1="455.8281" y2="455.8281"/><text fill="#000000" font-family="sans-serif" font-size="11" font-weight="bold" lengthAdjust="spacingAndGlyphs" textLength="134" x="99" y="466.0386">[invalid or missing JWT]</text><polygon fill="#A80036" points="141,486.7656,131,490.7656,141,494.7656,137,490.7656" style="stroke: #A80036; stroke-width: 1.0;"/><line style="stroke: #A80036; stroke-width: 1.0; stroke-dasharray: 2.0,2.0;" x1="135" x2="305" y1="490.7656" y2="490.7656"/><text fill="#000000" font-family="sans-serif" font-size="13" lengthAdjust="spacingAndGlyphs" textLength="82" x="147" y="485.6997">Unauthorized</text><!--MD5=[d3597ffa0f44e321e7ec9f776f3c1140]
@startuml
client -> server : GET /login
note over client
 Client sends its credentials
 (e.g., a password or an API key)
end note
alt valid credentials
  server - -> client : OK: JSON Web Token
  note over server
  Server replies with a JSON Web
  Token attached to its response
  end note
else invalid credentials
  server - -> client : Bad Request
end
...
client -> server : GET /protected-resource
note over client
  Client tries to access to a protected
  resource by using its JWT
end note
alt valid JWT
  server - -> client : OK
else invalid or missing JWT
  server - -> client : Unauthorized
end
@enduml

PlantUML version 1.2019.11(Sun Sep 22 12:02:15 CEST 2019)
(GPL source distribution)
Java Runtime: OpenJDK Runtime Environment
JVM: OpenJDK 64-Bit Server VM
Java Version: 11.0.5+10-b520.30
Operating System: Linux
Default Encoding: UTF-8
Language: en
Country: US
--></g></svg>